<?xml version="1.0" encoding="UTF-8"?>
<!DOCTYPE svg PUBLIC "-//W3C//DTD SVG 1.1//EN" "http://www.w3.org/Graphics/SVG/1.1/DTD/svg11.dtd">
<!-- Creator: CorelDRAW 2019 (64-Bit) -->
<svg xmlns="http://www.w3.org/2000/svg" xml:space="preserve" width="90mm" height="33mm" version="1.1" style="shape-rendering:geometricPrecision; text-rendering:geometricPrecision; image-rendering:optimizeQuality; fill-rule:evenodd; clip-rule:evenodd"
viewBox="0 0 9000 3300"
 xmlns:xlink="http://www.w3.org/1999/xlink">
 <defs>
  <style type="text/css">
   <![CDATA[
    .fil2 {fill:#2C94F5}
    .fil0 {fill:#516380}
    .fil3 {fill:#70AD12}
    .fil1 {fill:#7EC5F3}
    .fil4 {fill:#9CD749}
    .fil6 {fill:#516380;fill-rule:nonzero}
    .fil5 {fill:url(#id0)}
   ]]>
  </style>
  <linearGradient id="id0" gradientUnits="userSpaceOnUse" x1="6742.72" y1="2127.84" x2="7689.53" y2="3053.73">
   <stop offset="0" style="stop-opacity:1; stop-color:#FFF200"/>
   <stop offset="1" style="stop-opacity:1; stop-color:#F7A906"/>
  </linearGradient>
 </defs>
 <g id="Capa_x0020_1">
  <metadata id="CorelCorpID_0Corel-Layer"/>
  <path class="fil0" d="M466.73 974.86l0 -514.63 -94.75 0c-186.25,6.13 -327.47,-143.86 -327.29,-334.6l0 -87.44 17.28 0 404.76 0 194.44 0c232.99,0 227.36,218.32 227.6,221.16 0,348.33 0,696.65 0,1044.96l-110.06 0c-180.13,0 -310.28,-146.95 -311.98,-329.45z"/>
  <path class="fil0" d="M1521.84 974.85l0 -257.31 0 -257.3 0 -422.04 194.44 0c232.99,0 227.35,218.32 227.6,221.16 0,348.32 0,696.64 0,1044.96l-110.08 0c-180.11,0 -310.26,-146.96 -311.96,-329.47z"/>
  <path class="fil0" d="M2996.92 973.81l0 -102.18c118.13,-40.68 204.54,-149.28 213.3,-278.4l-213.3 0 0 -134.02 94.73 0c186.27,6.12 327.49,-152.12 327.31,-334.6l0 -87.45 -17.29 0 -404.75 0 -194.46 0c-232.98,0 -227.34,218.32 -227.6,221.16 0,348.33 0,696.65 0,1044.96l110.08 0c180.13,0 311.9,-146.13 311.98,-329.47z"/>
  <path class="fil0" d="M4368.55 973.81l0 -102.18c118.14,-40.68 204.56,-149.28 213.3,-278.4l-213.3 0 0 -134.02 94.73 0c186.27,6.12 326.98,-147.83 327.31,-334.6l0 -87.45 -17.29 0 -404.75 0 -194.44 0c-233,0 -227.36,218.32 -227.6,221.16 0,348.33 0,696.65 0,1044.96l110.06 0 515.09 0c2.84,-0.24 221.15,5.4 221.15,-227.6l0 -67.82 -424.28 0c0,-11.5 -0.09,-22.54 0.02,-34.05z"/>
  <path class="fil0" d="M6082.22 809.57c110.59,-76.44 183.06,-204.1 183.06,-348.71 0,-233.4 -188.73,-422.7 -421.9,-423.67l-0.02 -0.02 -1.78 0 -192.66 0c-232.99,0 -227.57,218.22 -227.6,221.16 0,348.33 0,696.65 0,1044.96l110.07 0c168.23,0 292.84,-128.18 309.97,-293.82l35.29 95.18c61.01,151.91 233.11,231.07 388.18,185.88l-182.61 -480.96z"/>
  <path class="fil0" d="M7215 871.64c118.15,-40.68 204.55,-149.28 213.3,-278.4l-213.3 0 0 -134.02 94.75 0c186.27,6.12 327.23,-150.05 327.29,-334.6l0 -87.45 -17.29 0 -404.75 0 -194.44 0c-232.99,0 -227.34,218.32 -227.6,221.16 0,348.33 0,696.65 0,1044.96l110.08 0 515.07 0c2.84,-0.24 221.17,5.4 221.17,-227.6l0 -67.82 -424.33 0c0.07,-45.41 0.05,-90.81 0.05,-136.23z"/>
  <path class="fil0" d="M8473.2 970.22l0 -514.63 -94.75 0c-186.25,6.13 -327.47,-143.86 -327.29,-334.6l0 -87.44 17.29 0 404.75 0 194.44 0c232.99,0 227.36,218.32 227.6,221.16 0,348.33 0,696.65 0,1044.96l-110.06 0c-180.13,0 -310.28,-146.95 -311.98,-329.45z"/>
  <g id="_1486348133888">
   <path class="fil1" d="M5684.43 2301.65l-39.75 0c-157.68,-4.82 -273.81,-133.51 -273.81,-294.06l0 -78.04 15.43 0 361.15 0 359.51 0c120.23,0 211.14,72.77 211.14,191.84 0,106.04 -75.36,214.09 -132.58,329.03l-0.03 0.01c-85.15,-88.67 -204.35,-144.55 -336.54,-146.44l-164.52 -2.34z"/>
   <path class="fil2" d="M6317.73 2778.39c0,260.27 -209.58,471.55 -469.19,474.36l-1.61 0.02c-1.2,0.01 -2.41,0.04 -3.62,0.04 -1.59,0 -3.17,-0.04 -4.76,-0.06 -1.06,0 -2.11,0.01 -3.17,0 -127.82,-1.83 -243.1,-54.05 -327.22,-137.47l0.21 -0.1 0.55 -0.27c-154.86,-153.85 -140.04,-305.51 -140.03,-501.06l86.44 0c49.19,0 93.64,13.37 130.74,36.58 38.07,23.82 68.94,56.67 82.33,99.2 8.96,28.47 13.29,63.76 40.01,108.73 15.06,25.34 36.47,48.7 65.37,61.87 144.4,65.76 279.84,-93.14 211.21,-209.35 -14.09,-23.85 -30.93,-43.07 -49.3,-57.55 -68.86,-54.29 -156.16,-32.51 -217.79,-134 -22.71,-37.4 -35.41,-82.06 -34.71,-131.25l1.24 -86.43 164.52 2.34c259.29,3.7 468.78,215.13 468.78,474.4z"/>
  </g>
  <g id="_1486348133472">
   <path class="fil3" d="M8365.12 3274.56l-6.29 10.84 -55.25 -34.23c-115.83,-63.95 -191.95,-206.87 -126.19,-319.65 115.02,-197.34 227.95,-397.34 342.58,-592.3 42.48,3.86 84.47,11.47 125.58,26.8 67.23,25.38 126.99,64.59 176.82,116.48 -125.42,225.11 -249.81,428.85 -457.25,792.06z"/>
   <path class="fil4" d="M8321.27 2333.68l-39.75 0c-157.67,-4.82 -273.82,-133.74 -273.81,-294.06l0 -78.05 15.42 0 361.17 0 359.53 0c120.23,0 202.95,71.97 202.95,191.03 0,83.16 -66.96,214.53 -124.19,329.48l-0.21 0.43c-49.84,-51.89 -109.6,-91.11 -176.84,-116.5 -104.57,-38.99 -214.94,-28.05 -324.27,-32.33z"/>
  </g>
  <path class="fil5" d="M7752.7 2982.56c-250.14,-171.08 -247.81,-305.73 -242.69,-367.32 14.3,-171.72 -121.09,-319.36 -293.89,-319.36 -162.87,0 -294.91,139.12 -294.91,294.91 0,155.79 109.78,273.99 253.2,291.96 57.18,7.16 181.9,64.54 203.81,347.68 -107.8,26.16 -208.15,27.48 -298.85,9.77 -85.48,-18.26 -164.83,-53.04 -234.56,-100.83 -331.8,-215.83 -423.96,-758 -46.15,-1057.44 267.15,-211.73 589.11,-197.88 850.7,10.87 130.84,120.78 229.76,332.27 229.76,500.98 0,168.71 -46.93,279.66 -126.42,388.78z"/>
  <g id="_1486348131424">
   <path class="fil6" d="M1782.59 2425.9c-43.28,0 -82.25,-8.73 -116.92,-26.18 -34.68,-17.45 -62.02,-43.64 -82.03,-78.54 -20.01,-34.9 -30.02,-77.25 -30.02,-127.05 0,-48.87 10.24,-91.34 30.72,-127.4 20.48,-36.07 47.93,-63.65 82.37,-82.73 34.44,-19.08 72.14,-28.62 113.09,-28.62 31.18,0 59.22,5.59 84.12,16.75 24.9,11.18 46.19,25.6 63.88,43.29l-62.83 76.79c-12.56,-11.17 -25.01,-19.55 -37.34,-25.13 -12.34,-5.59 -26.89,-8.38 -43.64,-8.38 -31.65,0 -57.47,11.75 -77.49,35.25 -20.01,23.51 -30.02,55.5 -30.02,95.99 0,43.28 9.77,76.21 29.33,98.78 19.54,22.57 49.32,33.86 89.35,33.86 14.89,0 26.53,-2.79 34.91,-8.38l0 -62.83 -67.02 0 0 -97.73 173.13 0 0 216.41c-16.76,16.28 -38.86,29.67 -66.32,40.14 -27.46,10.47 -56.55,15.71 -87.27,15.71zm562.68 -8.38l-78.19 -152.19 -46.07 0 0 152.19 -120.08 0 0 -453.77 171.73 0c54.46,0 98.32,11.29 131.59,33.86 33.28,22.57 49.92,60.15 49.92,112.74 0,31.19 -6.52,57.72 -19.55,79.59 -13.03,21.87 -30.95,39.1 -53.75,51.66l98.43 175.92 -134.03 0zm-124.26 -247.13l43.28 0c23.73,0 41.77,-5.11 54.1,-15.35 12.33,-10.24 18.5,-25.13 18.5,-44.69 0,-19.08 -5.94,-32.46 -17.8,-40.14 -11.87,-7.68 -30.14,-11.51 -54.8,-11.51l-43.28 0 0 111.69zm604.55 150.79l-127.06 0 -22.33 96.34 -122.86 0 138.22 -453.77 145.2 0 138.22 453.77 -127.05 0 -22.34 -96.34zm-21.64 -92.84l-7.68 -31.42c-6.05,-23.73 -12.1,-49.8 -18.15,-78.19l-15.36 -65.62 -2.79 0 -4.19 19.55c-10.24,51.19 -19.55,92.62 -27.92,124.26l-7.68 31.42 83.77 0zm291.11 -264.59l166.14 0c54.93,0 99.37,11.76 133.35,35.26 33.97,23.5 50.96,62.01 50.96,115.54 0,35.37 -8.26,65.03 -24.79,89.01 -16.52,23.96 -38.51,41.64 -65.97,53.05 -27.46,11.4 -57.71,17.1 -90.75,17.1l-48.86 0 0 143.81 -120.08 0 0 -453.77zm163.36 215.02c23.26,0 40.71,-5.58 52.35,-16.75 11.64,-11.18 17.46,-27 17.46,-47.47 0,-19.55 -6.17,-33.75 -18.51,-42.59 -12.33,-8.84 -30.36,-13.26 -54.09,-13.26l-40.49 0 0 120.07 43.28 0zm337.88 -215.02l120.07 0 0 168.95 135.43 0 0 -168.95 120.08 0 0 453.77 -120.08 0 0 -180.11 -135.43 0 0 180.11 -120.07 0 0 -453.77zm552.89 0l120.08 0 0 453.77 -120.08 0 0 -453.77zm494.26 462.15c-39.56,0 -75.74,-8.73 -108.55,-26.18 -32.81,-17.45 -58.99,-43.64 -78.54,-78.54 -19.54,-34.9 -29.32,-77.25 -29.32,-127.05 0,-48.87 10.13,-91.34 30.37,-127.4 20.24,-36.07 47,-63.65 80.28,-82.73 33.28,-19.08 69.46,-28.62 108.55,-28.62 27.93,0 53.99,5.59 78.19,16.75 24.2,11.18 45.14,25.6 62.83,43.29l-62.83 76.79c-12.57,-11.17 -24.67,-19.55 -36.3,-25.13 -11.64,-5.59 -24.67,-8.38 -39.09,-8.38 -17.69,0 -34.09,5.35 -49.22,16.06 -15.12,10.69 -27.23,25.94 -36.3,45.71 -9.08,19.79 -13.62,42.94 -13.62,69.47 0,41.88 8.85,74.47 26.54,97.73 17.68,23.27 41.41,34.91 71.2,34.91 30.71,0 58.18,-13.03 82.38,-39.1l62.82 75.4c-19.07,22.33 -41.3,39.09 -66.66,50.26 -25.36,11.17 -52.94,16.76 -82.73,16.76z"/>
   <path class="fil6" d="M1117.98 2806.74l134.04 0c72.6,0 129.61,18.15 171.04,54.45 41.41,36.31 62.12,93.08 62.12,170.34 0,77.26 -20.36,134.73 -61.08,172.43 -40.72,37.69 -95.76,56.55 -165.1,56.55l-141.02 0 0 -453.77zm127.06 357.43c36.76,0 65.5,-9.78 86.21,-29.32 20.72,-19.55 31.07,-53.99 31.07,-103.32 0,-48.87 -10.24,-82.49 -30.72,-100.88 -20.47,-18.38 -49.33,-27.57 -86.56,-27.57l-6.98 0 0 261.09 6.98 0zm397.92 -357.43l293.2 0 0 100.53 -173.13 0 0 71.21 148 0 0 100.52 -148 0 0 80.98 180.11 0 0 100.53 -300.18 0 0 -453.77zm608.74 462.14c-29.78,0 -59.91,-5.46 -90.4,-16.4 -30.48,-10.94 -57.59,-27.11 -81.33,-48.52l68.42 -82.38c16.29,13.04 33.97,23.63 53.05,31.76 19.09,8.15 36.77,12.23 53.06,12.23 34.44,0 51.66,-10.71 51.66,-32.12 0,-6.98 -2.33,-12.68 -6.98,-17.1 -4.66,-4.42 -11.87,-8.85 -21.65,-13.27 -9.77,-4.42 -20.71,-8.95 -32.81,-13.61l-56.55 -23.73c-26.99,-10.71 -48.97,-26.76 -65.97,-48.17 -16.98,-21.41 -25.47,-47.47 -25.47,-78.19 0,-25.6 7.21,-49.22 21.64,-70.86 14.42,-21.63 34.55,-38.74 60.38,-51.31 25.83,-12.56 54.8,-18.84 86.92,-18.84 26.99,0 53.86,5.12 80.63,15.36 26.75,10.24 50.14,25.36 70.15,45.37l-60.03 75.39c-15.83,-11.17 -30.83,-19.42 -45.03,-24.78 -14.19,-5.35 -29.44,-8.03 -45.72,-8.03 -14.89,0 -26.53,2.68 -34.9,8.03 -8.38,5.36 -12.57,12.92 -12.57,22.69 0,6.98 2.56,12.8 7.67,17.45 5.12,4.66 13.03,9.31 23.74,13.96 10.71,4.65 22.57,9.32 35.6,13.97l55.15 21.64c59.11,23.27 88.66,64.69 88.66,124.26 0,26.06 -7.1,50.14 -21.29,72.26 -14.2,22.1 -34.68,39.78 -61.43,53.05 -26.77,13.26 -58.29,19.89 -94.6,19.89zm326.71 -462.14l120.08 0 0 453.77 -120.08 0 0 -453.77zm506.83 462.14c-43.29,0 -82.26,-8.73 -116.93,-26.18 -34.68,-17.45 -62.02,-43.63 -82.03,-78.53 -20.01,-34.91 -30.02,-77.26 -30.02,-127.06 0,-48.86 10.24,-91.33 30.72,-127.4 20.48,-36.07 47.94,-63.64 82.37,-82.73 34.45,-19.07 72.14,-28.61 113.09,-28.61 31.19,0 59.23,5.58 84.12,16.75 24.9,11.17 46.2,25.6 63.88,43.28l-62.82 76.8c-12.57,-11.18 -25.02,-19.56 -37.35,-25.14 -12.34,-5.58 -26.88,-8.38 -43.63,-8.38 -31.66,0 -57.48,11.75 -77.5,35.26 -20.01,23.5 -30.02,55.5 -30.02,95.99 0,43.28 9.78,76.21 29.33,98.78 19.54,22.57 49.33,33.86 89.35,33.86 14.89,0 26.53,-2.8 34.91,-8.38l0 -62.83 -67.02 0 0 -97.74 173.13 0 0 216.42c-16.76,16.28 -38.86,29.66 -66.32,40.14 -27.46,10.47 -56.55,15.7 -87.26,15.7zm318.33 -462.14l122.87 0 100.53 202.45 43.28 101.92 2.79 0c-0.46,-5.12 -1.63,-14.42 -3.49,-27.92 -7.91,-64.23 -11.86,-112.62 -11.86,-145.2l0 -131.25 114.48 0 0 453.77 -122.86 0 -100.53 -203.15 -43.28 -101.23 -2.79 0 4.18 37.01c7.45,58.64 11.17,104.01 11.17,136.12l0 131.25 -114.49 0 0 -453.77zm545.92 0l293.2 0 0 100.53 -173.12 0 0 71.21 147.99 0 0 100.52 -147.99 0 0 80.98 180.1 0 0 100.53 -300.18 0 0 -453.77zm709.28 453.77l-78.19 -152.19 -46.07 0 0 152.19 -120.08 0 0 -453.77 171.73 0c54.46,0 98.32,11.29 131.6,33.86 33.27,22.57 49.91,60.15 49.91,112.74 0,31.18 -6.51,57.72 -19.55,79.59 -13.03,21.87 -30.95,39.09 -53.75,51.66l98.44 175.92 -134.04 0zm-124.26 -247.13l43.28 0c23.73,0 41.77,-5.12 54.1,-15.36 12.33,-10.24 18.5,-25.13 18.5,-44.68 0,-19.08 -5.93,-32.46 -17.8,-40.14 -11.86,-7.68 -30.13,-11.52 -54.8,-11.52l-43.28 0 0 111.7z"/>
  </g>
 </g>
</svg>
